<?xml version="1.0" encoding="utf-8"?>
<!-- Uploaded to: SVG Repo, www.svgrepo.com, Generator: SVG Repo Mixer Tools -->
<svg width="800px" height="800px" viewBox="0 0 1024 1024" class="icon"  version="1.1" xmlns="http://www.w3.org/2000/svg"><path d="M452.833837 943.564955c-22.429003-32.483384-98.996979-256-10.827795-366.598188 58.779456-73.47432 129.933535-80.435045 136.120846-163.190332 5.413897-71.927492-41.76435-130.706949-111.371601-113.691843-51.818731 12.374622-61.099698 88.942598-25.522659 126.066465 0.773414 0.773414-30.163142-12.374622-36.350453-57.232628-6.187311-44.858006 27.8429-82.755287 80.435046-86.622356 78.888218-5.413897 112.918429 71.927492 109.051359 129.16012-1.546828 23.202417-5.413897 54.138973-54.138973 102.090635-18.561934 18.561934-51.045317 33.256798-68.060423 61.873112-50.271903 87.39577 30.163142 313.232628 61.873112 367.371601H452.833837z" fill="#65320b" /><path d="M503.879154 238.984894c44.858006 0 81.208459-36.350453 81.208459-81.208459S548.73716 76.567976 503.879154 76.567976s-81.208459 36.350453-81.208459 81.208459 36.350453 81.208459 81.208459 81.208459z m-124.519637 7.734139c0-44.858006-36.350453-81.208459-81.20846-81.208459s-81.208459 36.350453-81.208459 81.208459 36.350453 81.208459 81.208459 81.208459c44.858006 0.773414 81.208459-36.350453 81.20846-81.208459z m108.277945 98.223565h-4.640483c-15.468278-18.561934-38.670695-30.163142-64.193354-30.163142-44.858006 0.773414-80.435045 37.897281-79.661631 82.755287 0.773414 44.858006 37.897281 80.435045 82.755287 79.661632h3.093656c14.694864 18.561934 37.897281 30.163142 63.419939 30.163142 44.858006 0 81.208459-36.350453 81.208459-81.20846-0.773414-44.858006-37.123867-81.208459-81.981873-81.208459z m270.694864-89.716012c-23.202417 0-44.084592 9.280967-58.779456 24.749245-14.694864-18.561934-37.897281-30.163142-63.419939-30.163142-44.858006 0-81.208459 36.350453-81.20846 81.208459s36.350453 81.208459 81.20846 81.208459c23.202417 0 44.084592-9.280967 58.779456-24.749244 14.694864 18.561934 37.897281 30.163142 63.419939 30.163142 44.858006 0 81.208459-36.350453 81.208459-81.20846S803.190332 255.226586 758.332326 255.226586zM663.975831 450.126888c-44.858006 0-81.208459 36.350453-81.208459 81.208459s36.350453 81.208459 81.208459 81.20846 81.208459-36.350453 81.208459-81.20846-36.350453-81.208459-81.208459-81.208459z" fill="#0e932e" /><path d="M643.867069 210.36858c0-44.858006 36.350453-81.208459 81.20846-81.208459s81.208459 36.350453 81.208459 81.208459-36.350453 81.208459-81.208459 81.208459S643.867069 255.226586 643.867069 210.36858z" fill="#aad08f" /><path d="M467.528701 565.365559c0-44.858006 36.350453-81.208459 81.208459-81.208459s81.208459 36.350453 81.208459 81.208459S593.595166 646.574018 548.73716 646.574018s-81.208459-36.350453-81.208459-81.208459z" fill="#aad08f" /><path d="M326.767372 145.401813C326.767372 100.543807 363.117825 64.193353 407.975831 64.193353S489.18429 100.543807 489.18429 145.401813s-36.350453 81.208459-81.208459 81.208459-81.208459-36.350453-81.208459-81.208459z" fill="#aad08f" /><path d="M335.274924 527.468278c0-44.858006 36.350453-81.208459 81.20846-81.208459s81.208459 36.350453 81.208459 81.208459-36.350453 81.208459-81.208459 81.208459S335.274924 572.326284 335.274924 527.468278z" fill="#aad08f" /><path d="M660.108761 448.58006c0-44.858006 36.350453-81.208459 81.20846-81.208459S822.52568 403.722054 822.52568 448.58006s-36.350453 81.208459-81.208459 81.20846S660.108761 493.438066 660.108761 448.58006z" fill="#aad08f" /><path d="M459.794562 283.8429c0-44.858006 36.350453-81.208459 81.208459-81.208459s81.208459 36.350453 81.208459 81.208459S585.861027 365.05136 541.003021 365.05136s-81.208459-36.350453-81.208459-81.20846z" fill="#aad08f" /><path d="M186.006042 356.543807c0-44.858006 36.350453-81.208459 81.20846-81.20846s81.208459 36.350453 81.208459 81.20846-36.350453 81.208459-81.208459 81.208459-81.208459-36.350453-81.20846-81.208459z" fill="#aad08f" /><path d="M529.401813 156.229607c0-44.858006 36.350453-81.208459 81.208459-81.208459s81.208459 36.350453 81.208459 81.208459S655.468278 237.438066 610.610272 237.438066 529.401813 201.087613 529.401813 156.229607z" fill="#b6f38b" /><path d="M515.480363 421.510574c0-44.858006 36.350453-81.208459 81.208459-81.208459s81.208459 36.350453 81.208459 81.208459S641.546828 502.719033 596.688822 502.719033s-81.208459-36.350453-81.208459-81.208459z" fill="#b6f38b" /><path d="M315.166163 278.429003c0-44.858006 36.350453-81.208459 81.208459-81.208459S477.583082 233.570997 477.583082 278.429003s-36.350453 81.208459-81.20846 81.208459S315.166163 323.287009 315.166163 278.429003z" fill="#b6f38b" /><path d="M212.302115 473.329305c0-44.858006 36.350453-81.208459 81.208459-81.208459s81.208459 36.350453 81.208459 81.208459S338.36858 554.537764 293.510574 554.537764 212.302115 518.187311 212.302115 473.329305z" fill="#b6f38b" /></svg>